<svg width="19" height="22" viewBox="0 0 19 22" fill="none" xmlns="http://www.w3.org/2000/svg">
<path d="M12.1927 10.0917C12.1927 10.7397 11.7202 11.2709 11.1215 11.2709C10.5334 11.2709 10.0503 10.7397 10.0503 10.0917C10.0503 9.44374 10.5229 8.9126 11.1215 8.9126C11.7202 8.9126 12.1927 9.44374 12.1927 10.0917ZM7.28834 8.9126C6.68973 8.9126 6.21714 9.44374 6.21714 10.0917C6.21714 10.7397 6.70023 11.2709 7.28834 11.2709C7.88695 11.2709 8.35954 10.7397 8.35954 10.0917C8.37004 9.44374 7.88695 8.9126 7.28834 8.9126ZM18.3784 2.18831V21.2458C15.7326 18.8808 16.5788 19.6636 13.5055 16.7735L14.0621 18.7388H2.1529C0.966178 18.7388 0 17.7615 0 16.5504V2.18831C0 0.977305 0.966178 0 2.1529 0H16.2255C17.4122 0 18.3784 0.977305 18.3784 2.18831ZM15.3853 12.2588C15.3853 8.83824 13.8731 6.06566 13.8731 6.06566C12.3608 4.91839 10.922 4.95026 10.922 4.95026L10.775 5.12023C12.5603 5.67262 13.39 6.46933 13.39 6.46933C10.8953 5.08633 7.96489 5.08608 5.54502 6.16127C5.15645 6.34186 4.92541 6.46933 4.92541 6.46933C4.92541 6.46933 5.79707 5.63013 7.68741 5.07774L7.5824 4.95026C7.5824 4.95026 6.14363 4.91839 4.63135 6.06566C4.63135 6.06566 3.11907 8.83824 3.11907 12.2588C3.11907 12.2588 4.00124 13.7991 6.32216 13.8735C6.32216 13.8735 6.71073 13.3955 7.02579 12.9918C5.69205 12.5881 5.18795 11.7383 5.18795 11.7383C5.34245 11.8477 5.5972 11.9895 5.61853 12.0039C7.39115 13.008 9.90907 13.3369 12.1717 12.3757C12.5393 12.2376 12.9489 12.0357 13.3795 11.7489C13.3795 11.7489 12.8544 12.62 11.4786 13.013C11.7937 13.4167 12.1717 13.8735 12.1717 13.8735C14.4927 13.7991 15.3853 12.2588 15.3853 12.2588Z" fill="white"/>
</svg>
