<svg width="19" height="19" viewBox="0 0 19 19" fill="none" xmlns="http://www.w3.org/2000/svg">
<path fill-rule="evenodd" clip-rule="evenodd" d="M9.18881 0.786911C4.53754 0.786911 0.765381 4.57967 0.765381 9.25925C0.765381 13.0009 3.17908 16.1767 6.52624 17.2964C6.94817 17.3743 7.10133 17.1131 7.10133 16.888C7.10133 16.6874 7.09444 16.1539 7.09061 15.4481C4.74736 15.9595 4.25344 14.3118 4.25344 14.3118C3.8698 13.3329 3.31768 13.0725 3.31768 13.0725C2.55268 12.5468 3.37588 12.5578 3.37588 12.5578C4.22128 12.6177 4.66543 13.4305 4.66543 13.4305C5.41664 14.7257 6.63651 14.3511 7.11741 14.1348C7.19399 13.5879 7.4107 13.2141 7.65191 13.0016C5.78115 12.7884 3.81466 12.0613 3.81466 8.81545C3.81466 7.89086 4.14317 7.13467 4.68227 6.54215C4.59498 6.32812 4.30628 5.46649 4.76421 4.30033C4.76421 4.30033 5.47178 4.07292 7.08142 5.16826C7.753 4.98019 8.47358 4.88734 9.18957 4.88341C9.9048 4.88734 10.6254 4.98019 11.2985 5.16826C12.9066 4.07292 13.6126 4.30033 13.6126 4.30033C14.0721 5.46649 13.7834 6.32812 13.6961 6.54215C14.236 7.13467 14.5622 7.89086 14.5622 8.81545C14.5622 12.07 12.5926 12.786 10.7165 12.9961C11.019 13.2574 11.2878 13.7744 11.2878 14.5644C11.2878 15.6967 11.2778 16.6103 11.2778 16.888C11.2778 17.1147 11.4294 17.3783 11.8567 17.2957C15.2008 16.1736 17.6122 13.0001 17.6122 9.25925C17.6122 4.57967 13.8408 0.786911 9.18881 0.786911Z" fill="white"/>
<mask id="mask0" style="mask-type:alpha" maskUnits="userSpaceOnUse" x="0" y="0" width="18" height="18">
<path fill-rule="evenodd" clip-rule="evenodd" d="M9.18881 0.786911C4.53754 0.786911 0.765381 4.57967 0.765381 9.25925C0.765381 13.0009 3.17908 16.1767 6.52624 17.2964C6.94817 17.3743 7.10133 17.1131 7.10133 16.888C7.10133 16.6874 7.09444 16.1539 7.09061 15.4481C4.74736 15.9595 4.25344 14.3118 4.25344 14.3118C3.8698 13.3329 3.31768 13.0725 3.31768 13.0725C2.55268 12.5468 3.37588 12.5578 3.37588 12.5578C4.22128 12.6177 4.66543 13.4305 4.66543 13.4305C5.41664 14.7257 6.63651 14.3511 7.11741 14.1348C7.19399 13.5879 7.4107 13.2141 7.65191 13.0016C5.78115 12.7884 3.81466 12.0613 3.81466 8.81545C3.81466 7.89086 4.14317 7.13467 4.68227 6.54215C4.59498 6.32812 4.30628 5.46649 4.76421 4.30033C4.76421 4.30033 5.47178 4.07292 7.08142 5.16826C7.753 4.98019 8.47358 4.88734 9.18957 4.88341C9.9048 4.88734 10.6254 4.98019 11.2985 5.16826C12.9066 4.07292 13.6126 4.30033 13.6126 4.30033C14.0721 5.46649 13.7834 6.32812 13.6961 6.54215C14.236 7.13467 14.5622 7.89086 14.5622 8.81545C14.5622 12.07 12.5926 12.786 10.7165 12.9961C11.019 13.2574 11.2878 13.7744 11.2878 14.5644C11.2878 15.6967 11.2778 16.6103 11.2778 16.888C11.2778 17.1147 11.4294 17.3783 11.8567 17.2957C15.2008 16.1736 17.6122 13.0001 17.6122 9.25925C17.6122 4.57967 13.8408 0.786911 9.18881 0.786911Z" fill="white"/>
</mask>
<g mask="url(#mask0)">
<rect y="3.05176e-05" width="18.3784" height="18.8851" fill="white"/>
</g>
</svg>
