<svg width="19" height="19" viewBox="0 0 19 19" fill="none" xmlns="http://www.w3.org/2000/svg">
<path fill-rule="evenodd" clip-rule="evenodd" d="M8.56248 11.8746C7.25762 11.8746 6.1955 10.7832 6.1955 9.4424C6.1955 8.10156 7.25762 7.01015 8.56248 7.01015C9.86735 7.01015 10.9295 8.10156 10.9295 9.4424C10.9295 10.7832 9.86735 11.8746 8.56248 11.8746ZM9.92018 1.60823C7.62212 1.38633 5.3746 2.22278 3.75653 3.89726C2.1377 5.57095 1.34054 7.88674 1.57027 10.2497C1.84441 13.0605 3.56815 15.5077 6.06991 16.6353C7.07077 17.0861 8.13212 17.3073 9.18581 17.3073C10.846 17.3073 12.4886 16.7572 13.8447 15.6902C14.1809 15.4258 14.2445 14.9317 13.9872 14.5862C13.7299 14.2424 13.2497 14.1771 12.9136 14.4407C11.1385 15.8374 8.75239 16.1238 6.68482 15.1937C4.71833 14.3077 3.31009 12.3059 3.09414 10.0924C2.91036 8.19992 3.54748 6.34603 4.84315 5.00597C6.1373 3.6667 7.93838 2.99628 9.77852 3.17569C12.8837 3.47234 15.315 6.30275 15.315 9.61945V10.1506C15.315 10.5189 15.1726 10.8619 14.913 11.1169C14.6541 11.3718 14.3111 11.5024 13.9535 11.4867C13.2689 11.456 12.7114 10.7943 12.7114 10.0121V6.60963C12.7114 6.17449 12.3691 5.82275 11.9456 5.82275C11.5559 5.82275 11.248 6.12413 11.199 6.51127C10.5037 5.85029 9.58171 5.4364 8.56248 5.4364C6.41297 5.4364 4.66397 7.23442 4.66397 9.4424C4.66397 11.6512 6.41297 13.4484 8.56248 13.4484C9.86428 13.4484 11.0122 12.7827 11.7205 11.7723C12.2144 12.512 12.9978 13.0188 13.8861 13.0589C14.6618 13.1014 15.4077 12.8087 15.972 12.2539C16.5364 11.6992 16.8465 10.9524 16.8465 10.1506V9.61945C16.8465 5.49856 13.8049 1.98042 9.92018 1.60823Z" fill="white"/>
<mask id="mask0" style="mask-type:alpha" maskUnits="userSpaceOnUse" x="1" y="1" width="16" height="17">
<path fill-rule="evenodd" clip-rule="evenodd" d="M8.56248 11.8746C7.25762 11.8746 6.1955 10.7832 6.1955 9.4424C6.1955 8.10156 7.25762 7.01015 8.56248 7.01015C9.86735 7.01015 10.9295 8.10156 10.9295 9.4424C10.9295 10.7832 9.86735 11.8746 8.56248 11.8746ZM9.92018 1.60823C7.62212 1.38633 5.3746 2.22278 3.75653 3.89726C2.1377 5.57095 1.34054 7.88674 1.57027 10.2497C1.84441 13.0605 3.56815 15.5077 6.06991 16.6353C7.07077 17.0861 8.13212 17.3073 9.18581 17.3073C10.846 17.3073 12.4886 16.7572 13.8447 15.6902C14.1809 15.4258 14.2445 14.9317 13.9872 14.5862C13.7299 14.2424 13.2497 14.1771 12.9136 14.4407C11.1385 15.8374 8.75239 16.1238 6.68482 15.1937C4.71833 14.3077 3.31009 12.3059 3.09414 10.0924C2.91036 8.19992 3.54748 6.34603 4.84315 5.00597C6.1373 3.6667 7.93838 2.99628 9.77852 3.17569C12.8837 3.47234 15.315 6.30275 15.315 9.61945V10.1506C15.315 10.5189 15.1726 10.8619 14.913 11.1169C14.6541 11.3718 14.3111 11.5024 13.9535 11.4867C13.2689 11.456 12.7114 10.7943 12.7114 10.0121V6.60963C12.7114 6.17449 12.3691 5.82275 11.9456 5.82275C11.5559 5.82275 11.248 6.12413 11.199 6.51127C10.5037 5.85029 9.58171 5.4364 8.56248 5.4364C6.41297 5.4364 4.66397 7.23442 4.66397 9.4424C4.66397 11.6512 6.41297 13.4484 8.56248 13.4484C9.86428 13.4484 11.0122 12.7827 11.7205 11.7723C12.2144 12.512 12.9978 13.0188 13.8861 13.0589C14.6618 13.1014 15.4077 12.8087 15.972 12.2539C16.5364 11.6992 16.8465 10.9524 16.8465 10.1506V9.61945C16.8465 5.49856 13.8049 1.98042 9.92018 1.60823Z" fill="white"/>
</mask>
<g mask="url(#mask0)">
<rect width="18.3784" height="18.8851" fill="white"/>
</g>
</svg>
