<svg width="19" height="19" viewBox="0 0 19 19" fill="none" xmlns="http://www.w3.org/2000/svg">
<path fill-rule="evenodd" clip-rule="evenodd" d="M13.3242 17.3113C6.82134 17.3113 1.53143 11.8756 1.53143 5.1934C1.53143 3.19709 3.11197 1.57375 5.05396 1.57375C5.25306 1.57375 5.44986 1.59106 5.64053 1.6249C5.82661 1.65559 6.01423 1.70438 6.19571 1.7689C6.44535 1.85782 6.6322 2.07263 6.69116 2.33703L7.74026 7.02997C7.7977 7.28807 7.72495 7.55876 7.54652 7.75075C7.44161 7.86249 7.43932 7.86485 6.48977 8.37554C7.2586 10.0862 8.59486 11.4546 10.2267 12.2179C10.7237 11.2414 10.7267 11.2382 10.8355 11.1312C11.0231 10.9471 11.2873 10.8755 11.5377 10.9321L16.1047 12.0093C16.3613 12.0699 16.5703 12.2619 16.6568 12.5177C16.7196 12.7034 16.7663 12.8954 16.7977 13.0929C16.8299 13.2872 16.8468 13.4887 16.8468 13.6917C16.8468 15.688 15.267 17.3113 13.3242 17.3113Z" fill="white"/>
<mask id="mask0" style="mask-type:alpha" maskUnits="userSpaceOnUse" x="1" y="1" width="16" height="17">
<path fill-rule="evenodd" clip-rule="evenodd" d="M13.3242 17.3113C6.82134 17.3113 1.53143 11.8756 1.53143 5.1934C1.53143 3.19709 3.11197 1.57375 5.05396 1.57375C5.25306 1.57375 5.44986 1.59106 5.64053 1.6249C5.82661 1.65559 6.01423 1.70438 6.19571 1.7689C6.44535 1.85782 6.6322 2.07263 6.69116 2.33703L7.74026 7.02997C7.7977 7.28807 7.72495 7.55876 7.54652 7.75075C7.44161 7.86249 7.43932 7.86485 6.48977 8.37554C7.2586 10.0862 8.59486 11.4546 10.2267 12.2179C10.7237 11.2414 10.7267 11.2382 10.8355 11.1312C11.0231 10.9471 11.2873 10.8755 11.5377 10.9321L16.1047 12.0093C16.3613 12.0699 16.5703 12.2619 16.6568 12.5177C16.7196 12.7034 16.7663 12.8954 16.7977 13.0929C16.8299 13.2872 16.8468 13.4887 16.8468 13.6917C16.8468 15.688 15.267 17.3113 13.3242 17.3113Z" fill="white"/>
</mask>
<g mask="url(#mask0)">
<rect y="-7.62939e-06" width="18.3784" height="18.8851" fill="white"/>
</g>
</svg>
