<svg width="109" height="41" viewBox="0 0 109 41" fill="none" xmlns="http://www.w3.org/2000/svg">
<g clip-path="url(#clip0)">
<path d="M56.2746 13.5802L61.4604 13.2407C61.5787 14.0994 61.7956 14.7385 62.1505 15.1978C62.7223 15.9168 63.511 16.2762 64.5561 16.2762C65.3251 16.2762 65.9363 16.0965 66.3504 15.717C66.7448 15.4175 66.9814 14.9382 66.9814 14.4389C66.9814 13.9596 66.7645 13.5003 66.3898 13.2007C65.9955 12.8413 65.0687 12.4818 63.6096 12.1622C61.2238 11.623 59.5083 10.9041 58.5027 9.98543C57.4971 9.12669 56.9253 7.86853 56.9647 6.53049C56.9647 5.61183 57.2408 4.69318 57.7534 3.93429C58.345 3.07554 59.1534 2.39654 60.1196 2.01709C61.1646 1.55776 62.6237 1.31812 64.4575 1.31812C66.7053 1.31812 68.4208 1.7375 69.6038 2.59625C70.7869 3.43502 71.4967 4.79303 71.7136 6.65031L66.587 6.94988C66.449 6.15104 66.1729 5.57189 65.7194 5.19245C65.2659 4.813 64.6744 4.63326 63.9054 4.63326C63.2744 4.63326 62.8012 4.77306 62.4857 5.03268C62.1899 5.27233 61.9928 5.6318 62.0125 6.03122C62.0125 6.33078 62.1702 6.61037 62.4068 6.79011C62.6632 7.02976 63.2744 7.24944 64.2406 7.44914C66.6264 7.96838 68.3222 8.48763 69.3672 9.02684C70.4123 9.56605 71.1616 10.2251 71.6151 11.0039C72.0883 11.8028 72.3249 12.7214 72.3052 13.6601C72.3052 14.7784 71.9897 15.8968 71.3587 16.8354C70.708 17.814 69.801 18.5729 68.7363 19.0322C67.6123 19.5315 66.1927 19.7911 64.4969 19.7911C61.4998 19.7911 59.4295 19.2119 58.2661 18.0337C57.1028 16.8554 56.4126 15.3775 56.2746 13.5802ZM1.24222 19.4915V1.63765H10.3321C12.0081 1.63765 13.3095 1.77744 14.1968 2.077C15.0644 2.3566 15.8334 2.93575 16.3461 3.71461C16.9179 4.57335 17.1939 5.57189 17.1742 6.61037C17.2334 8.3678 16.3461 10.0453 14.8278 10.9241C14.2363 11.2636 13.5856 11.5032 12.9152 11.623C13.4081 11.7628 13.901 12.0025 14.3348 12.2821C14.67 12.5617 14.9461 12.8812 15.2024 13.2207C15.4982 13.5602 15.7545 13.9396 15.9714 14.3391L18.6136 19.5115H12.4222L9.50398 14.0195C9.12934 13.3206 8.81386 12.8612 8.51809 12.6415C8.12373 12.362 7.65051 12.2222 7.17728 12.2222H6.70405V19.4716H1.24222V19.4915ZM6.70405 8.86707H9.01104C9.50398 8.82713 9.97721 8.74725 10.4504 8.62742C10.8054 8.56751 11.1208 8.3678 11.3377 8.06824C11.8701 7.34929 11.7912 6.33078 11.1406 5.71169C10.7856 5.41213 10.0955 5.25236 9.10962 5.25236H6.70405V8.86707ZM0 34.7891L5.18578 34.4496C5.30409 35.3084 5.52098 35.9474 5.87591 36.4068C6.428 37.1257 7.23643 37.5052 8.28148 37.5052C9.05047 37.5052 9.66172 37.3254 10.0758 36.946C10.4702 36.6265 10.7068 36.1671 10.7068 35.6679C10.7068 35.1886 10.4899 34.7292 10.1152 34.4297C9.72088 34.0702 8.79414 33.7107 7.3153 33.3912C4.92945 32.852 3.214 32.133 2.20839 31.2144C1.20279 30.3556 0.63097 29.0975 0.670405 27.7594C0.670405 26.8408 0.946455 25.9221 1.45912 25.1632C2.05065 24.3045 2.85908 23.6255 3.82525 23.246C4.8703 22.7867 6.32941 22.5471 8.16317 22.5471C10.411 22.5471 12.1264 22.9664 13.3095 23.8252C14.4926 24.6839 15.1827 26.022 15.3996 27.8793L10.273 28.1788C10.1349 27.38 9.8589 26.8008 9.40539 26.4214C8.9716 26.0419 8.36035 25.8622 7.59135 25.8822C6.96038 25.8822 6.48716 26.022 6.17167 26.3016C5.85619 26.5412 5.67873 26.9007 5.69844 27.3001C5.69844 27.5997 5.85619 27.8793 6.0928 28.059C6.34913 28.2986 6.96038 28.5183 7.92656 28.718C10.3124 29.2373 12.0081 29.7565 13.0532 30.2957C14.0982 30.8349 14.8475 31.494 15.301 32.2728C15.7742 33.0717 16.0109 33.9903 16.0109 34.909C16.0109 36.0273 15.6757 37.1257 15.0644 38.0644C14.4137 39.0429 13.5067 39.8018 12.4419 40.2611C11.318 40.7604 9.89834 41.02 8.20261 41.02C5.2055 41.02 3.13513 40.4409 1.97178 39.2626C0.80843 38.0644 0.157742 36.5865 0 34.7891H0Z" fill="#FFC20A"/>
<path d="M26.2247 33.3911L30.9964 34.849C30.7401 36.0672 30.2077 37.2255 29.4781 38.244C28.8077 39.1427 27.9204 39.8417 26.9148 40.301C25.8895 40.7603 24.5881 41 23.0107 41C21.0981 41 19.5206 40.7204 18.3179 40.1612C17.0954 39.602 16.0503 38.6035 15.163 37.1856C14.2757 35.7676 13.8419 33.9503 13.8419 31.7336C13.8419 28.7779 14.6109 26.5012 16.1686 24.9235C17.7263 23.3458 19.915 22.547 22.7544 22.547C24.9825 22.547 26.7176 23.0063 27.9993 23.905C29.2612 24.8237 30.2077 26.2216 30.8387 28.0989L26.0275 29.1773C25.9092 28.7579 25.7318 28.3385 25.4951 27.979C25.1994 27.5597 24.8247 27.2401 24.3712 27.0005C23.9177 26.7608 23.405 26.661 22.8924 26.661C21.6502 26.661 20.7037 27.1602 20.053 28.1788C19.5601 28.9177 19.3037 30.0959 19.3037 31.6936C19.3037 33.6707 19.5995 35.0287 20.191 35.7676C20.7826 36.5066 21.6107 36.866 22.6952 36.866C23.7403 36.866 24.529 36.5665 25.0613 35.9873C25.5937 35.3682 25.9881 34.5095 26.2247 33.3911ZM37.3652 22.8466H42.8074V29.0974H48.7621V22.8466H54.2437V40.7004H48.7621V33.471H42.8074V40.7004H37.3652V22.8466Z" fill="#FFC20A"/>
<path d="M53.4944 31.7734C53.4944 28.8577 54.3028 26.581 55.9 24.9634C57.4971 23.3458 59.7449 22.527 62.604 22.527C65.542 22.527 67.7898 23.3258 69.3869 24.9235C70.9841 26.5211 71.7728 28.7579 71.7728 31.6336C71.7728 33.7306 71.4179 35.4281 70.7277 36.7661C70.0573 38.0842 69.0123 39.1626 67.7306 39.8816C66.4095 40.6205 64.773 40.9999 62.8209 40.9999C60.8294 40.9999 59.1928 40.6804 57.8915 40.0413C56.5506 39.3623 55.4464 38.3039 54.7169 37.0058C53.9085 35.6078 53.4944 33.8704 53.4944 31.7734ZM58.9365 31.7934C58.9365 33.5908 59.2717 34.8889 59.9224 35.6877C60.5731 36.4666 61.4801 36.866 62.6237 36.866C63.7871 36.866 64.6941 36.4865 65.3448 35.7077C65.9955 34.9288 66.311 33.5508 66.311 31.5538C66.311 29.8762 65.9758 28.638 65.3054 27.8791C64.6349 27.1003 63.7279 26.7208 62.5843 26.7208C61.5787 26.6809 60.6125 27.1203 59.9421 27.8991C59.2717 28.678 58.9365 29.9761 58.9365 31.7934ZM77.3529 31.7734C77.3529 28.8577 78.1614 26.581 79.7585 24.9634C81.3556 23.3458 83.6035 22.527 86.4626 22.527C89.4005 22.527 91.668 23.3258 93.2455 24.9235C94.8229 26.5211 95.6313 28.7579 95.6313 31.6336C95.6313 33.7306 95.2764 35.4281 94.5863 36.7661C93.9159 38.0842 92.8708 39.1626 91.5892 39.8816C90.2681 40.6205 88.6315 40.9999 86.6794 40.9999C84.6879 40.9999 83.0514 40.6804 81.75 40.0413C80.4092 39.3623 79.305 38.3039 78.5754 37.0058C77.767 35.6078 77.3529 33.8704 77.3529 31.7734ZM82.795 31.7934C82.795 33.5908 83.1302 34.8889 83.7809 35.6877C84.4316 36.4666 85.3386 36.866 86.4823 36.866C87.6456 36.866 88.5526 36.4865 89.2033 35.7077C89.854 34.9288 90.1695 33.5508 90.1695 31.5538C90.1695 29.8762 89.8343 28.638 89.1639 27.8791C88.4935 27.1003 87.5865 26.7208 86.4428 26.7208C85.4372 26.6809 84.4513 27.1203 83.8006 27.8991C83.1302 28.678 82.795 29.9761 82.795 31.7934Z" fill="#FFC20A"/>
<path d="M95.0595 22.8466H100.502V36.3069H109V40.7004H95.0398V22.8466H95.0595Z" fill="#FFC20A"/>
<path d="M89.0611 21.8162C94.5402 17.6344 96.2297 10.5454 92.8349 5.98261C89.44 1.41981 82.2462 1.11102 76.7672 5.2929C71.2881 9.47478 69.5986 16.5637 72.9935 21.1265C76.3884 25.6893 83.5821 25.9981 89.0611 21.8162Z" fill="white"/>
<path d="M89.0611 21.8162C94.5402 17.6344 96.2297 10.5454 92.8349 5.98261C89.44 1.41982 82.2462 1.11103 76.7672 5.29291C71.2881 9.47478 69.5986 16.5637 72.9935 21.1265C76.3884 25.6893 83.5821 25.9981 89.0611 21.8162Z" fill="white"/>
<path d="M89.0611 21.8162C94.5402 17.6344 96.2297 10.5454 92.8349 5.98261C89.44 1.41982 82.2462 1.11103 76.7672 5.29291C71.2881 9.47478 69.5986 16.5637 72.9935 21.1265C76.3884 25.6893 83.5821 25.9981 89.0611 21.8162Z" stroke="#FFC20A" stroke-width="4" stroke-miterlimit="10"/>
<path d="M77.3727 12.2421L79.3445 10.8441L81.7698 14.339C82.1839 14.8982 82.4993 15.4973 82.736 16.1563C82.874 16.6556 82.8345 17.1948 82.6374 17.6741C82.381 18.2732 81.967 18.7725 81.4149 19.132C80.7642 19.5913 80.2121 19.8509 79.7389 19.9308C79.2853 20.0107 78.8121 19.9308 78.3783 19.7311C77.9051 19.4915 77.491 19.1519 77.1755 18.7126L78.8713 17.1149C79.0093 17.3346 79.1868 17.5343 79.3839 17.6941C79.522 17.7939 79.6797 17.8538 79.8572 17.8538C79.9952 17.8538 80.1332 17.7939 80.2318 17.7141C80.429 17.5942 80.567 17.3546 80.5473 17.1149C80.4881 16.7754 80.3501 16.4359 80.1332 16.1763L77.3727 12.2421ZM83.2881 14.4588L85.0824 13.0209C85.2796 13.2606 85.5359 13.4403 85.8119 13.5402C86.2063 13.66 86.6204 13.5801 86.9556 13.3205C87.1922 13.1607 87.3894 12.941 87.4682 12.6614C87.5865 12.302 87.3894 11.9026 87.0344 11.7827C86.9753 11.7628 86.9161 11.7428 86.857 11.7428C86.6204 11.7228 86.2063 11.8227 85.595 12.0823C84.5894 12.5017 83.8007 12.6614 83.2092 12.6015C82.6374 12.5416 82.105 12.2421 81.7895 11.7428C81.5529 11.4033 81.4346 11.0039 81.4149 10.6045C81.4149 10.1451 81.5332 9.6858 81.7895 9.30636C82.1641 8.76714 82.6176 8.30782 83.1697 7.94834C83.9979 7.36919 84.7275 7.0896 85.3584 7.0896C85.9894 7.0896 86.5809 7.38916 87.133 8.00826L85.3584 9.42618C85.0035 8.96685 84.3331 8.867 83.8796 9.22647L83.8204 9.28639C83.6233 9.40621 83.4852 9.58595 83.4064 9.80562C83.3472 9.96539 83.3866 10.1451 83.4852 10.2849C83.5641 10.3848 83.6824 10.4647 83.8204 10.4647C83.9782 10.4846 84.2542 10.4047 84.6486 10.225C85.6345 9.80563 86.3838 9.56598 86.8964 9.48609C87.3302 9.40621 87.7837 9.44615 88.1978 9.62589C88.5724 9.78565 88.8879 10.0652 89.1048 10.4047C89.3809 10.8042 89.5386 11.2835 89.5583 11.7827C89.578 12.302 89.44 12.8012 89.164 13.2406C88.809 13.7798 88.3555 14.2391 87.8231 14.5986C86.7387 15.3575 85.8514 15.677 85.1415 15.5572C84.3725 15.4374 83.7416 15.038 83.2881 14.4588Z" fill="#FFC20A"/>
</g>
<defs>
<clipPath id="clip0">
<rect width="109" height="41" fill="white"/>
</clipPath>
</defs>
</svg>
